<svg xmlns="http://www.w3.org/2000/svg" viewBox="0 0 520 360" role="img" aria-labelledby="t d"><title id="t">Representative New Jersey home illustration</title><desc id="d">A clean blue and white two-story home used as a decorative graphic in the annual pricing exit offer.</desc><defs><linearGradient id="sky" x1="0" y1="0" x2="0" y2="1"><stop stop-color="#e8f5ff"/><stop offset="1" stop-color="#fff"/></linearGradient><linearGradient id="lawn" x1="0" y1="0" x2="0" y2="1"><stop stop-color="#b8dca8"/><stop offset="1" stop-color="#7fb36e"/></linearGradient><filter id="s"><feDropShadow dx="0" dy="14" stdDeviation="12" flood-color="#244b78" flood-opacity=".16"/></filter></defs><rect width="520" height="360" rx="30" fill="url(#sky)"/><circle cx="430" cy="76" r="54" fill="#fff" opacity=".82"/><ellipse cx="260" cy="314" rx="190" ry="26" fill="#dce7d2"/><path d="M85 300C130 260 188 260 230 300Z" fill="#9bc58a"/><path d="M310 300C350 256 410 258 454 300Z" fill="#92bf82"/><g filter="url(#s)"><rect x="148" y="158" width="230" height="132" rx="4" fill="#edf4f8" stroke="#c1d0da" stroke-width="3"/><path d="M126 174L263 82L402 174Z" fill="#587997"/><path d="M162 164L264 98L366 164Z" fill="#7792ab"/><rect x="178" y="188" width="44" height="55" fill="#b7d6e8" stroke="#7aa1bd" stroke-width="3"/><path d="M200 188v55M178 215h44" stroke="#fff" stroke-width="3"/><rect x="304" y="188" width="44" height="55" fill="#b7d6e8" stroke="#7aa1bd" stroke-width="3"/><path d="M326 188v55M304 215h44" stroke="#fff" stroke-width="3"/><rect x="238" y="206" width="52" height="84" fill="#335d7c"/><rect x="247" y="216" width="12" height="30" rx="5" fill="#b9d3e1"/><rect x="169" y="257" width="54" height="33" fill="#e4edf2" stroke="#bbcbd6" stroke-width="2"/><rect x="304" y="257" width="54" height="33" fill="#e4edf2" stroke="#bbcbd6" stroke-width="2"/><rect x="144" y="150" width="238" height="13" fill="#fff" opacity=".88"/><path d="M124 289H402" stroke="#96aebf" stroke-width="5"/></g><g fill="url(#lawn)"><path d="M45 332C110 278 175 296 226 332Z"/><path d="M291 332C352 276 427 286 487 332Z"/></g><g fill="#6f9e63"><circle cx="112" cy="250" r="37"/><circle cx="404" cy="244" r="42"/><rect x="105" y="246" width="13" height="64" rx="6"/><rect x="397" y="238" width="14" height="72" rx="7"/></g></svg>