<svg xmlns="http://www.w3.org/2000/svg" viewBox="0 0 1600 620" role="img" aria-labelledby="t d"><title id="t">Atlantic City-inspired New Jersey shore illustration</title><desc id="d">Blue shore scene with skyline and ferris wheel used decoratively behind the Agent Founding Lifetime offer.</desc><defs><linearGradient id="sky" x1="0" y1="0" x2="0" y2="1"><stop stop-color="#d8efff"/><stop offset=".65" stop-color="#edf8ff"/><stop offset="1" stop-color="#fff"/></linearGradient><linearGradient id="water" x1="0" y1="0" x2="1" y2="0"><stop stop-color="#8ec8e7"/><stop offset=".5" stop-color="#b9dff0"/><stop offset="1" stop-color="#87c5e5"/></linearGradient><filter id="cloud"><feGaussianBlur stdDeviation="16"/></filter></defs><rect width="1600" height="620" fill="url(#sky)"/><g opacity=".88" filter="url(#cloud)"><ellipse cx="190" cy="105" rx="250" ry="58" fill="#fff"/><ellipse cx="720" cy="90" rx="310" ry="64" fill="#fff"/><ellipse cx="1280" cy="116" rx="280" ry="64" fill="#fff"/></g><rect y="430" width="1600" height="190" fill="url(#water)"/><path d="M0 470 C250 455 420 492 640 470 C840 450 1050 492 1275 468 C1410 453 1515 458 1600 450 V620H0Z" fill="#d9edf5" opacity=".78"/><g fill="#5d7893" opacity=".82"><rect x="845" y="302" width="44" height="128"/><rect x="900" y="268" width="62" height="162"/><rect x="977" y="326" width="42" height="104"/><rect x="1032" y="282" width="58" height="148"/><rect x="1102" y="246" width="48" height="184"/><rect x="1162" y="320" width="45" height="110"/><rect x="1220" y="286" width="64" height="144"/><rect x="1298" y="332" width="39" height="98"/><rect x="1349" y="255" width="58" height="175"/><rect x="1420" y="305" width="46" height="125"/><rect x="1480" y="275" width="72" height="155"/></g><g stroke="#4f7699" fill="none" opacity=".88"><circle cx="710" cy="372" r="88" stroke-width="6"/><circle cx="710" cy="372" r="8" fill="#4f7699" stroke="none"/><path d="M710 284V460M622 372H798M648 310L772 434M648 434L772 310M671 292L749 452M632 333L788 411M632 411L788 333M671 452L749 292" stroke-width="2"/><path d="M682 460H738L720 430H700Z" fill="#4f7699" stroke="none"/></g><path d="M0 515 C210 480 385 510 560 500 C780 488 940 530 1180 500 C1360 478 1500 486 1600 474V620H0Z" fill="#f5f0d4" opacity=".84"/><path d="M0 548 C250 508 480 548 720 528 C980 508 1220 554 1450 522 C1515 513 1565 512 1600 508V620H0Z" fill="#e5e3bf" opacity=".8"/></svg>