<svg xmlns="http://www.w3.org/2000/svg" width="1600" height="900" viewBox="0 0 1600 900" role="img" aria-labelledby="t d"><title id="t">New Jersey 2026 property assessment records</title><desc id="d">A New Jersey home connected to official assessment, land, improvement, tax and parcel data cards.</desc><defs><linearGradient id="bg" x1="0" y1="0" x2="1" y2="1"><stop stop-color="#081a31"/><stop offset="1" stop-color="#0c4e6e"/></linearGradient><linearGradient id="card" x1="0" y1="0" x2="1" y2="1"><stop stop-color="#133955"/><stop offset="1" stop-color="#0c263e"/></linearGradient></defs><rect width="1600" height="900" fill="url(#bg)"/><g opacity=".15" stroke="#66d7ee" fill="none"><circle cx="800" cy="430" r="340" stroke-width="2"/><circle cx="800" cy="430" r="270"/><path d="M210 245H1390M210 655H1390M360 120V780M1240 120V780"/></g><g stroke="#63d8ef" stroke-width="3" opacity=".7"><path d="M500 265L685 385M1100 265L915 385M470 620L680 520M1130 620L920 520"/></g><g fill="url(#card)" stroke="#8ed8e8" stroke-opacity=".5"><rect x="140" y="160" width="360" height="160" rx="24"/><rect x="1100" y="160" width="360" height="160" rx="24"/><rect x="120" y="580" width="390" height="165" rx="24"/><rect x="1090" y="580" width="390" height="165" rx="24"/></g><g fill="#fff" font-family="Arial,Helvetica,sans-serif"><text x="180" y="210" font-size="24" font-weight="700">2026 ASSESSMENT</text><text x="180" y="265" font-size="42" font-weight="700">$451,300</text><text x="1140" y="210" font-size="24" font-weight="700">LAND + IMPROVEMENT</text><text x="1140" y="265" font-size="30">Official MOD-IV fields</text><text x="160" y="630" font-size="24" font-weight="700">PARCEL RECORD</text><text x="160" y="685" font-size="30">Block, lot, class, acreage</text><text x="1130" y="630" font-size="24" font-weight="700">LAST YEAR TAX</text><text x="1130" y="685" font-size="42" font-weight="700">$8,952</text></g><g transform="translate(610 300)"><path d="M190 0L390 155V430H0V155Z" fill="#f7fafc"/><path d="M55 172L190 68L335 180V430H55Z" fill="#dfe8ef"/><rect x="145" y="285" width="90" height="145" rx="5" fill="#173957"/><rect x="85" y="220" width="60" height="70" fill="#6ba8c2"/><rect x="250" y="220" width="60" height="70" fill="#6ba8c2"/><path d="M-15 165L190 -5L405 165" fill="none" stroke="#93aabd" stroke-width="24" stroke-linecap="round"/></g><g transform="translate(725 360)"><rect width="150" height="175" rx="18" fill="#0b7f9e" stroke="#8fe7f5" stroke-width="6"/><path d="M38 48h74M38 82h74M38 116h48" stroke="#fff" stroke-width="12" stroke-linecap="round"/><circle cx="113" cy="133" r="25" fill="#f4c657"/><path d="M103 133l8 8 15-18" fill="none" stroke="#0b2b45" stroke-width="7" stroke-linecap="round" stroke-linejoin="round"/></g><text x="800" y="820" text-anchor="middle" fill="#fff" font-family="Arial,Helvetica,sans-serif" font-size="44" font-weight="700">NEW JERSEY'S 2026 PROPERTY ASSESSMENT FILES ARE LIVE</text><text x="800" y="862" text-anchor="middle" fill="#b9e3ed" font-family="Arial,Helvetica,sans-serif" font-size="25">What homeowners should know about MOD-IV</text></svg>